<svg width="25" height="17" viewBox="0 0 25 17" fill="none" xmlns="http://www.w3.org/2000/svg">
<path d="M22.5113 0H2.4613C1.35397 0 0.456299 0.837948 0.456299 1.87161C0.456299 2.90527 1.35397 3.74322 2.4613 3.74322H22.5113C23.6187 3.74322 24.5163 2.90527 24.5163 1.87161C24.5163 0.837948 23.6187 0 22.5113 0Z" fill="#2C364C"/>
<path d="M22.5113 6.55054H2.4613C1.35397 6.55054 0.456299 7.38849 0.456299 8.42215C0.456299 9.45581 1.35397 10.2938 2.4613 10.2938H22.5113C23.6187 10.2938 24.5163 9.45581 24.5163 8.42215C24.5163 7.38849 23.6187 6.55054 22.5113 6.55054Z" fill="#2C364C"/>
<path d="M22.5113 13.1011H2.4613C1.35397 13.1011 0.456299 13.939 0.456299 14.9727C0.456299 16.0064 1.35397 16.8443 2.4613 16.8443H22.5113C23.6187 16.8443 24.5163 16.0064 24.5163 14.9727C24.5163 13.939 23.6187 13.1011 22.5113 13.1011Z" fill="#2C364C"/>
</svg>
